<?xml version="1.0" standalone="no"?>
<!DOCTYPE svg PUBLIC "-//W3C//DTD SVG 20010904//EN"
 "http://www.w3.org/TR/2001/REC-SVG-20010904/DTD/svg10.dtd">
<svg version="1.0" xmlns="http://www.w3.org/2000/svg"
 width="800.000000pt" height="800.000000pt" viewBox="0 0 800.000000 800.000000"
 preserveAspectRatio="xMidYMid meet">
<metadata>
Created by potrace 1.14, written by Peter Selinger 2001-2017
</metadata>
<g transform="translate(0.000000,800.000000) scale(0.100000,-0.100000)"
fill="#000000" stroke="none">
<path d="M3970 7769 c-9 -6 -47 -8 -95 -4 -51 3 -98 1 -130 -7 -43 -11 -51
-17 -59 -45 -9 -29 -12 -31 -43 -26 -28 5 -32 3 -27 -11 3 -9 12 -16 20 -16 8
0 14 -4 14 -9 0 -14 -23 -19 -42 -9 -13 6 -18 5 -18 -7 0 -8 -7 -15 -15 -15
-17 0 -11 25 13 52 13 16 13 18 -2 24 -9 4 -20 4 -23 0 -4 -3 -17 4 -30 16
-13 12 -23 16 -23 9 0 -7 -7 -19 -15 -27 -8 -9 -15 -23 -15 -32 0 -12 3 -13
12 -4 18 18 23 15 26 -14 1 -20 -5 -28 -33 -40 -19 -8 -35 -19 -35 -25 0 -6
-7 -8 -16 -5 -9 4 -27 0 -40 -9 -22 -14 -25 -14 -41 5 -10 11 -27 20 -39 20
-11 0 -29 9 -39 20 -38 42 -175 17 -225 -41 -11 -14 -19 -18 -18 -9 6 30 -41
23 -72 -12 -16 -18 -30 -35 -30 -39 0 -9 -97 -47 -140 -55 -38 -7 -62 -28 -53
-50 2 -7 -2 -23 -11 -36 -9 -12 -16 -18 -17 -13 -3 27 -17 -47 -18 -92 -1 -50
-17 -103 -31 -103 -17 0 -58 -79 -64 -122 -6 -43 -24 -65 -49 -59 -4 1 -13
-11 -20 -26 -16 -37 -64 -110 -77 -118 -5 -3 -10 -13 -10 -21 0 -8 -9 -24 -19
-35 -10 -11 -21 -33 -24 -47 -2 -15 -8 -36 -12 -46 -6 -13 -5 -17 2 -13 20 13
43 -5 53 -41 7 -27 6 -38 -3 -44 -9 -6 -9 -12 0 -27 7 -11 10 -27 7 -35 -4
-11 2 -19 19 -25 52 -20 42 -51 -16 -51 -24 0 -27 -3 -22 -20 8 -26 -25 -28
-47 -2 -19 21 -38 77 -38 108 0 31 -18 31 -26 0 -12 -49 38 -167 87 -206 20
-16 17 -51 -8 -101 -38 -74 -43 -164 -14 -258 12 -38 21 -89 21 -114 0 -24 7
-62 17 -83 9 -22 15 -54 14 -73 -1 -18 2 -38 8 -45 5 -6 11 -33 14 -61 10 -83
18 -129 27 -150 5 -11 14 -64 20 -118 6 -54 15 -119 21 -145 9 -40 8 -48 -7
-59 -10 -7 -21 -13 -25 -13 -4 0 -19 -24 -33 -52 -50 -104 -45 -269 11 -396
13 -30 35 -96 48 -145 13 -49 36 -113 51 -141 15 -28 39 -85 53 -126 23 -65
32 -79 76 -112 38 -28 52 -47 60 -77 6 -21 15 -45 21 -52 6 -8 14 -25 17 -40
4 -14 20 -45 37 -70 16 -24 30 -49 30 -56 0 -7 10 -29 22 -50 12 -21 32 -60
45 -88 36 -73 40 -80 51 -78 6 2 23 -22 38 -52 16 -30 32 -55 36 -55 4 0 8 -9
8 -20 0 -11 4 -28 9 -38 11 -20 26 -90 24 -112 -12 -117 -15 -145 -18 -148 -2
-2 0 -16 5 -31 6 -22 4 -30 -12 -40 -10 -6 -24 -9 -30 -5 -6 4 -8 3 -5 -3 4
-6 0 -13 -8 -17 -11 -4 -15 2 -17 22 -1 15 -2 47 -4 72 -2 44 -19 161 -30 210
-5 22 -7 23 -15 7 -6 -9 -13 -36 -17 -59 -6 -34 -12 -43 -32 -49 -15 -3 -31
-1 -41 7 -8 8 -30 15 -48 16 l-34 3 -24 -120 c-13 -66 -28 -124 -34 -130 -5
-5 -9 -17 -9 -26 0 -20 -85 -44 -125 -37 -13 3 -22 1 -19 -3 3 -5 1 -9 -5 -9
-5 0 -13 5 -16 10 -12 19 -41 10 -70 -23 -16 -17 -28 -36 -27 -40 1 -5 -2 -6
-8 -2 -5 3 -22 -7 -38 -22 -15 -16 -44 -41 -65 -57 -22 -16 -49 -51 -67 -85
-32 -65 -53 -80 -174 -129 -108 -44 -123 -43 -133 10 -5 27 -17 48 -35 61 -26
20 -29 20 -155 4 -70 -9 -175 -21 -233 -27 -58 -6 -123 -15 -145 -20 -54 -12
-85 -50 -85 -102 l0 -41 -83 8 c-148 13 -614 22 -714 14 -54 -4 -136 -13 -183
-19 -47 -6 -125 -15 -175 -20 -50 -5 -107 -12 -127 -16 l-38 -6 0 -490 c0
-450 1 -490 16 -484 45 17 202 58 314 81 69 14 140 30 158 35 44 11 51 -7 20
-57 -14 -21 -30 -54 -38 -73 -22 -59 -109 -260 -155 -360 -132 -287 -131 -286
-167 -274 -13 4 -51 8 -85 9 l-63 1 0 -157 0 -157 39 -7 c38 -6 38 -6 30 -43
-4 -20 -21 -75 -38 -122 -30 -82 -31 -91 -31 -247 l0 -163 4000 0 4000 0 -2
618 c-3 608 -3 618 -24 662 -12 25 -34 74 -49 110 -43 103 -138 299 -190 390
-52 93 -61 108 -157 256 -37 56 -78 124 -92 151 -35 70 -142 175 -261 255 -55
38 -134 95 -175 127 -100 79 -226 141 -286 141 -31 0 -83 15 -162 46 -127 51
-279 86 -467 109 -132 17 -161 24 -250 67 -33 15 -74 28 -90 28 -44 0 -216 39
-235 53 -8 6 -35 33 -60 60 -49 54 -84 66 -193 67 -44 0 -72 7 -117 30 -33 17
-67 30 -76 30 -25 0 -9 -50 25 -80 51 -45 79 -93 116 -200 30 -84 38 -125 42
-205 5 -91 3 -106 -19 -162 -42 -103 -114 -207 -210 -303 -127 -126 -254 -206
-453 -285 -174 -69 -399 -72 -655 -9 -236 58 -464 206 -662 428 -80 91 -91
118 -50 124 52 8 215 -77 312 -163 32 -28 130 -77 195 -98 91 -30 453 -9 495
28 8 7 35 21 60 31 25 10 47 21 50 25 3 4 46 50 95 101 102 106 185 201 185
213 0 4 15 22 33 40 29 28 58 65 189 241 21 28 38 56 38 62 0 7 6 12 14 12 15
0 76 91 76 114 0 8 11 36 24 63 13 26 30 67 36 90 7 23 18 41 24 40 7 -1 10
16 8 48 -6 101 16 374 32 406 9 18 16 36 16 42 0 5 13 35 29 66 16 32 41 95
57 142 15 46 34 95 41 109 7 14 13 42 13 62 0 20 4 39 10 43 5 3 7 12 4 20 -3
8 -2 20 2 27 8 12 10 17 13 37 0 5 13 14 29 20 15 6 33 20 40 31 11 19 10 20
-20 18 l-33 -3 3 139 c4 137 18 211 45 228 17 10 22 150 7 204 -11 37 -10 50
0 69 18 35 43 31 71 -9 26 -39 48 -48 91 -39 33 6 46 27 30 46 -6 6 -11 55
-11 107 -1 105 -9 120 -64 120 -22 0 -40 -11 -68 -41 -21 -23 -43 -38 -48 -34
-14 8 -14 102 -1 110 5 3 9 16 9 28 -3 86 13 406 21 438 6 22 8 50 4 62 -4 12
-8 56 -10 97 -1 41 -5 122 -7 180 -2 58 -1 110 4 115 13 17 14 128 1 165 -10
30 -10 187 -1 245 1 6 -1 20 -5 33 -6 19 -4 23 11 20 14 -2 18 4 19 27 0 17 3
35 6 41 10 16 -36 82 -78 110 -21 15 -40 30 -42 35 -2 5 -14 9 -27 9 -26 0
-86 63 -107 112 -7 15 -20 30 -28 33 -30 10 -150 138 -150 160 0 23 -27 37
-48 26 -29 -15 -62 -3 -59 23 1 15 -3 21 -16 20 -13 -2 -17 4 -15 20 2 16 -2
21 -19 19 -28 -3 -63 40 -63 79 0 39 -21 75 -72 124 -38 37 -50 42 -105 47
-35 4 -71 11 -80 16 -10 5 -38 17 -62 26 -24 8 -57 29 -73 45 -16 17 -36 30
-43 30 -8 0 -28 20 -45 44 -23 31 -37 42 -50 39 -10 -3 -17 -10 -14 -17 2 -6
-10 -20 -27 -30 -30 -18 -31 -18 -79 7 -27 14 -70 29 -95 32 -49 8 -52 25 -4
25 16 0 29 5 29 10 0 13 -61 13 -80 -1z m-1157 -395 c-19 -39 -43 -57 -43 -31
0 17 50 81 57 74 2 -3 -4 -22 -14 -43z m-170 -269 c-3 -9 -8 -14 -10 -11 -3 3
-2 9 2 15 9 16 15 13 8 -4z m1465 -125 c37 -23 142 -60 169 -60 10 0 36 -11
58 -25 22 -13 52 -25 66 -25 33 0 194 -74 232 -106 22 -19 37 -23 57 -19 22 5
36 0 64 -25 19 -17 38 -39 41 -49 3 -10 28 -32 55 -50 28 -18 50 -36 50 -40 0
-4 26 -34 58 -67 50 -52 59 -67 74 -129 26 -105 32 -138 29 -157 -1 -10 2 -34
8 -54 6 -23 7 -43 1 -54 -11 -21 8 -107 38 -170 57 -120 128 -338 147 -455 31
-185 56 -452 55 -604 0 -183 -7 -323 -19 -371 -5 -19 -16 -66 -25 -104 -9 -38
-24 -74 -33 -81 -15 -11 -15 -12 1 -18 15 -6 15 -8 -4 -27 -11 -11 -17 -26
-14 -35 8 -20 -41 -66 -61 -59 -13 6 -20 -6 -16 -28 0 -4 -9 -7 -21 -5 -16 1
-23 -4 -25 -18 -1 -11 0 -14 3 -7 3 6 10 12 15 12 14 0 11 -34 -5 -56 -9 -11
-12 -30 -9 -46 5 -26 3 -28 -27 -28 -24 0 -31 -4 -26 -15 3 -10 -6 -20 -27
-31 -40 -20 -77 -54 -77 -70 0 -6 -7 -17 -15 -24 -8 -7 -15 -20 -15 -30 0 -10
-7 -23 -15 -30 -8 -7 -15 -19 -15 -27 0 -8 -18 -35 -40 -60 -22 -25 -40 -52
-40 -61 0 -9 -7 -13 -19 -9 -14 3 -18 1 -14 -9 3 -9 -2 -14 -16 -14 -14 0 -19
-5 -15 -15 4 -8 2 -15 -4 -15 -6 0 -8 -9 -5 -19 3 -13 -4 -27 -21 -42 -19 -16
-24 -28 -20 -46 7 -25 2 -28 -25 -13 -15 7 -25 1 -56 -35 -39 -47 -55 -55 -55
-30 0 20 -24 19 -41 -1 -8 -10 -22 -14 -38 -11 -15 3 -33 -1 -42 -9 -11 -10
-23 -11 -49 -4 -18 5 -36 7 -41 5 -4 -3 -11 4 -14 16 -6 17 -9 19 -16 8 -7
-11 -9 -10 -9 5 0 13 -4 16 -12 9 -29 -20 -63 -14 -80 14 l-16 28 -7 -28 c-7
-26 -27 -39 -24 -14 4 36 -4 38 -22 4 -22 -42 -47 -57 -59 -37 -4 7 -13 9 -19
5 -7 -4 -24 -8 -39 -10 -14 -1 -34 -13 -44 -25 -17 -21 -18 -21 -18 -2 0 22
-18 32 -56 32 -13 0 -24 5 -24 10 0 23 -80 42 -112 28 -12 -6 -18 -2 -23 12
-3 11 -15 20 -25 20 -11 0 -23 6 -27 13 -4 6 -25 20 -45 29 -23 11 -38 25 -38
35 0 10 -9 24 -20 30 -10 7 -25 31 -31 53 -10 32 -16 39 -31 34 -10 -3 -18 0
-18 6 0 10 -8 22 -38 55 -7 8 -11 18 -8 23 2 4 -11 6 -30 4 -26 -3 -34 0 -34
11 0 9 -9 19 -20 22 -38 12 -79 56 -86 91 -3 19 -11 34 -17 34 -6 0 -7 3 -4 7
4 3 2 12 -4 20 -9 10 -8 17 1 28 7 8 10 22 6 31 -3 8 -1 24 4 34 8 15 6 19
-12 22 -14 2 -22 11 -23 26 -2 26 14 40 25 22 5 -8 9 -7 13 4 8 20 43 21 50 2
3 -8 3 -25 0 -38 -5 -19 -4 -21 8 -11 16 13 95 9 113 -6 6 -5 33 -12 61 -17
40 -5 58 -15 91 -48 22 -23 57 -54 77 -69 21 -15 37 -34 37 -41 0 -8 10 -15
23 -15 12 -1 41 -3 65 -4 39 -2 43 -4 39 -24 -5 -26 -4 -26 41 -14 24 7 32 7
32 -4 0 -7 -9 -15 -21 -18 -28 -8 -23 -53 6 -50 11 1 22 -3 25 -8 4 -5 17 -9
31 -9 13 0 35 0 48 1 13 0 32 4 43 10 10 6 18 6 18 1 0 -14 35 -21 53 -11 10
6 18 5 22 -1 11 -18 23 -11 18 11 -5 19 -3 20 30 14 33 -7 58 7 42 23 -3 3
-10 0 -15 -8 -7 -11 -15 -9 -43 10 -40 27 -61 56 -51 71 3 6 29 25 58 44 68
43 93 72 78 87 -16 16 -52 20 -187 19 -109 -1 -118 0 -101 14 11 8 28 16 38
16 10 1 23 3 28 4 6 1 23 3 40 4 24 1 28 4 23 19 -10 26 -22 31 -61 20 -19 -5
-51 -7 -71 -4 -52 10 -119 17 -173 19 -55 2 -59 9 -21 34 22 14 52 18 153 20
69 2 177 5 240 9 78 4 125 2 145 -6 l30 -12 -24 -19 c-13 -10 -31 -19 -42 -19
-10 0 -21 -4 -24 -10 -8 -14 47 -13 82 1 15 6 37 15 48 20 25 10 122 37 195
55 30 7 71 11 91 8 31 -5 38 -2 53 21 15 23 16 29 5 37 -10 6 -10 11 -3 14 6
3 20 11 30 18 17 13 17 16 4 41 -8 15 -15 33 -15 40 0 13 -62 65 -109 92 -40
24 -64 14 -56 -22 9 -42 8 -54 -5 -71 -14 -19 -14 -19 -28 0 -17 23 -30 8 -23
-28 3 -14 1 -25 -4 -23 -4 1 -17 -8 -28 -21 -20 -23 -20 -23 -27 -3 -8 27 -20
26 -46 0 -17 -17 -23 -19 -30 -8 -6 11 -11 11 -21 1 -17 -17 -29 -15 -22 3 4
8 0 25 -8 38 -8 12 -13 35 -12 51 2 15 -5 46 -14 67 -17 39 -35 49 -48 28 -10
-17 -33 29 -26 53 3 11 26 29 56 42 60 27 76 53 84 140 4 48 2 58 -9 54 -8 -3
-32 1 -54 9 -21 7 -45 11 -51 9 -7 -3 -26 0 -43 7 -24 9 -39 8 -67 -2 -21 -7
-58 -12 -83 -11 -25 1 -68 2 -96 1 -27 0 -66 5 -87 12 -20 7 -68 12 -107 12
-56 -1 -77 -5 -100 -23 -37 -27 -43 -27 -68 1 -27 28 -25 75 5 107 30 32 9 40
-25 9 -29 -28 -63 -90 -63 -117 0 -10 -6 -24 -12 -31 -10 -11 -10 -14 0 -18 6
-3 12 -15 12 -27 0 -12 4 -26 9 -32 6 -5 11 -43 12 -84 1 -41 6 -86 11 -100
10 -28 56 -69 77 -70 32 0 -11 -27 -46 -28 -21 -1 -51 -7 -66 -13 -19 -8 -31
-9 -35 -2 -4 5 -24 13 -45 16 -28 4 -39 2 -44 -9 -4 -11 -9 -12 -19 -3 -10 8
-14 8 -14 0 0 -6 -6 -11 -14 -11 -10 0 -12 7 -8 22 3 15 2 19 -7 14 -14 -9
-43 12 -35 26 4 5 -8 2 -26 -7 -18 -9 -46 -15 -61 -13 -24 4 -28 1 -24 -12 5
-17 -41 -40 -81 -40 -11 0 -25 -5 -31 -11 -16 -16 -61 0 -65 24 -2 16 -9 21
-25 19 -24 -3 -83 23 -83 37 0 5 -20 30 -45 55 -25 26 -45 49 -45 52 0 3 -11
17 -25 32 -27 29 -50 95 -40 113 4 5 2 15 -3 22 -14 17 -32 172 -35 293 -2
125 5 138 75 132 26 -3 51 -1 56 4 5 5 21 11 36 14 25 4 27 2 25 -23 -4 -40
27 -104 46 -97 8 4 15 1 15 -5 0 -17 37 -13 44 4 3 9 18 15 38 14 18 0 47 2
63 5 118 20 163 30 180 41 11 6 33 15 49 19 16 4 43 18 61 32 17 13 36 24 42
24 6 0 27 14 48 30 21 17 33 30 26 30 -6 0 -2 9 10 21 27 27 19 34 -25 19 -20
-6 -45 -8 -57 -5 -15 5 -19 4 -15 -4 5 -7 -5 -11 -28 -11 -19 0 -43 -3 -53 -7
-15 -6 -16 -4 -5 9 13 16 53 28 158 47 88 16 112 14 125 -10 11 -21 25 -17 31
11 4 20 21 38 33 35 5 -2 22 -6 38 -9 15 -4 27 -13 27 -22 0 -9 7 -14 18 -12
15 3 17 18 17 144 0 100 4 145 13 156 7 9 14 24 16 34 2 11 7 31 11 47 6 23 4
27 -14 27 -12 0 -21 6 -21 13 0 15 -45 57 -60 57 -6 0 -10 5 -10 11 0 5 -4 8
-9 5 -5 -3 -20 3 -34 14 -14 11 -29 20 -33 20 -4 0 -19 10 -32 23 -17 15 -26
18 -29 10 -3 -9 -15 -5 -37 12 -23 17 -36 21 -43 14 -8 -8 -17 -4 -32 12 -19
21 -73 33 -131 30 -8 0 -53 -2 -100 -4 -47 -2 -96 -6 -110 -10 -14 -3 -63 -8
-110 -11 -71 -4 -94 -10 -142 -36 -32 -17 -58 -27 -58 -21 0 6 -6 11 -13 11
-16 0 -19 102 -3 113 8 5 8 9 -1 15 -11 7 -33 54 -33 72 0 4 9 6 20 3 23 -6
25 4 5 31 -8 10 -19 43 -25 73 -10 45 -9 60 4 86 10 21 11 34 4 38 -6 4 -8 13
-6 20 3 8 -1 22 -10 32 -11 12 -12 17 -2 17 10 0 10 3 1 14 -8 10 -9 15 -1 18
6 2 15 20 19 41 5 21 5 35 0 31 -17 -10 -9 20 14 53 12 18 31 36 43 39 24 6
54 53 54 83 0 12 6 20 12 19 7 -2 14 8 16 21 8 54 213 225 292 244 14 3 59 15
100 27 41 12 92 26 113 31 20 5 54 14 75 19 85 24 227 38 392 39 158 1 178 -1
208 -19z m1222 -220 c0 -5 -4 -10 -10 -10 -5 0 -10 5 -10 10 0 6 5 10 10 10 6
0 10 -4 10 -10z m-2030 -1236 c52 -8 82 -25 106 -62 9 -15 13 -24 9 -19 -5 4
-16 1 -24 -7 -17 -15 -125 -25 -138 -13 -3 4 -13 1 -21 -6 -12 -9 -16 -9 -19
1 -6 15 -33 16 -33 1 0 -8 -4 -8 -13 -1 -7 6 -22 9 -34 6 -17 -5 -20 -1 -20
21 0 19 6 29 18 32 11 3 19 10 19 15 0 10 -23 7 -67 -8 -12 -4 -10 -1 6 12 38
28 93 44 131 39 19 -2 55 -7 80 -11z m901 -1178 c6 -6 13 -6 21 2 16 16 63 15
76 -1 6 -7 9 -23 5 -35 -4 -17 -1 -22 13 -23 18 0 18 -1 -1 -9 -26 -11 -102
-12 -109 -2 -2 4 -45 5 -94 1 -50 -4 -133 -4 -186 -1 -53 4 -96 4 -96 0 0 -5
-4 -8 -10 -8 -13 0 -13 31 1 50 8 11 12 12 16 3 3 -10 9 -9 26 1 13 8 51 14
92 14 116 1 144 5 162 21 10 9 29 21 43 27 22 10 25 9 28 -10 2 -11 8 -25 13
-30z m454 -76 c3 -5 1 -10 -4 -10 -6 0 -11 5 -11 10 0 6 2 10 4 10 3 0 8 -4
11 -10z m-792 -267 c-7 -2 -19 -2 -25 0 -7 3 -2 5 12 5 14 0 19 -2 13 -5z
m-213 -497 c0 -3 -4 -8 -10 -11 -5 -3 -10 -1 -10 4 0 6 5 11 10 11 6 0 10 -2
10 -4z"/>
<path d="M2801 6084 c0 -11 3 -14 6 -6 3 7 2 16 -1 19 -3 4 -6 -2 -5 -13z"/>
<path d="M4356 5950 c-22 -11 -48 -27 -58 -36 -14 -14 -18 -14 -18 -3 -1 8 -7
1 -14 -16 l-13 -30 -19 35 -19 35 -3 -45 c-2 -31 -6 -40 -13 -30 -7 13 -9 12
-9 -2 0 -9 -5 -20 -12 -24 -6 -4 -8 -3 -5 3 4 6 0 13 -8 17 -9 3 -15 0 -15
-10 0 -20 -47 -67 -55 -54 -12 20 -25 9 -19 -15 6 -25 -10 -36 -19 -12 -8 21
-37 -25 -30 -48 3 -11 7 -36 8 -55 1 -19 8 -48 14 -63 6 -16 11 -34 11 -41 0
-6 4 -16 8 -22 5 -5 14 -35 21 -67 16 -76 45 -95 116 -77 24 6 34 -2 37 -27 3
-25 8 -29 45 -34 52 -7 64 -16 40 -34 -16 -11 -15 -14 15 -28 89 -42 205 -71
211 -53 3 8 9 7 17 -1 17 -16 51 2 44 22 -5 12 3 15 39 15 25 0 48 4 52 10 3
5 12 7 20 3 16 -5 75 15 75 26 0 3 15 7 32 8 18 2 34 7 36 13 2 5 23 10 47 10
35 0 45 4 50 20 4 12 1 28 -5 36 -10 12 -7 16 19 25 43 15 51 35 51 123 0 66
-3 78 -26 106 -35 41 -141 98 -194 105 -16 2 -37 8 -49 14 -18 10 -19 15 -9
44 6 17 15 37 20 43 12 16 60 25 55 10 -3 -7 15 -12 52 -14 57 -3 81 -14 81
-38 0 -9 11 -14 29 -14 21 0 37 -9 55 -32 14 -18 21 -37 17 -43 -11 -15 -6
-54 12 -97 26 -61 38 -51 52 40 9 53 -5 88 -63 165 -96 126 -138 140 -428 141
-122 1 -220 4 -217 9 8 13 -21 7 -61 -13z m364 -324 c19 -10 63 -36 96 -58 47
-32 61 -47 60 -64 -1 -22 -2 -22 -24 -8 -30 19 -37 13 -21 -18 12 -23 12 -23
-9 -5 -13 12 -28 16 -40 12 -11 -3 -23 -1 -26 4 -4 6 -21 8 -39 6 -17 -2 -50
2 -72 8 -22 7 -61 13 -87 12 -32 -1 -45 2 -41 10 3 10 -23 21 -69 29 -32 5 8
56 65 82 42 19 160 13 207 -10z m-300 -310 c0 -3 -4 -8 -10 -11 -5 -3 -10 -1
-10 4 0 6 5 11 10 11 6 0 10 -2 10 -4z m150 -15 c0 -4 -21 -6 -47 -6 -58 2
-61 3 -46 13 14 9 93 3 93 -7z"/>
<path d="M4153 4088 c16 -10 64 -10 70 0 3 4 -15 7 -38 7 -24 0 -39 -3 -32 -7z"/>
<path d="M4110 7750 c8 -5 20 -10 25 -10 6 0 3 5 -5 10 -8 5 -19 10 -25 10 -5
0 -3 -5 5 -10z"/>
<path d="M5395 4640 c-10 -11 -15 -23 -12 -27 8 -7 47 25 47 39 0 14 -16 9
-35 -12z"/>
</g>
</svg>
